<mxfile host="app.diagrams.net" modified="2023-12-27T03:16:38.019Z" agent="Mozilla/5.0 (Macintosh; Intel Mac OS X 10_15_7) AppleWebKit/537.36 (KHTML, like Gecko) Chrome/120.0.0.0 Safari/537.36" etag="ugwQkMplPWh-Ai9Jw4ue" version="22.1.12" type="github">
  <diagram id="s12lNiNFRgSMunTinEKW" name="Page-1">
    <mxGraphModel dx="1249" dy="835" grid="1" gridSize="10" guides="1" tooltips="1" connect="1" arrows="1" fold="1" page="1" pageScale="1" pageWidth="827" pageHeight="1169" math="0" shadow="0">
      <root>
        <mxCell id="0" />
        <mxCell id="1" parent="0" />
      </root>
    </mxGraphModel>
  </diagram>
</mxfile>
